<svg width="40" height="40" viewBox="0 0 40 40" fill="none" xmlns="http://www.w3.org/2000/svg">
<g clip-path="url(#clip0)">
<path fill-rule="evenodd" clip-rule="evenodd" d="M5 38.75V5C5 3.67392 5.52678 2.40215 6.46447 1.46447C7.40215 0.526784 8.67392 0 10 0L30 0C31.3261 0 32.5979 0.526784 33.5355 1.46447C34.4732 2.40215 35 3.67392 35 5V38.75C35.0002 38.9671 34.9438 39.1804 34.8364 39.3691C34.7291 39.5578 34.5745 39.7152 34.3878 39.826C34.2011 39.9367 33.9888 39.9969 33.7717 40.0007C33.5547 40.0045 33.3404 39.9517 33.15 39.8475L20 32.6725L6.85 39.8475C6.65957 39.9517 6.4453 40.0045 6.22826 40.0007C6.01123 39.9969 5.79892 39.9367 5.61223 39.826C5.42554 39.7152 5.27091 39.5578 5.16356 39.3691C5.05621 39.1804 4.99984 38.9671 5 38.75ZM20.4 10.25C20.3635 10.175 20.3066 10.1118 20.2358 10.0676C20.1651 10.0234 20.0834 10 20 10C19.9166 10 19.8349 10.0234 19.7642 10.0676C19.6934 10.1118 19.6365 10.175 19.6 10.25L18.015 13.4625C17.9833 13.5275 17.9362 13.5838 17.8778 13.6264C17.8194 13.6691 17.7515 13.697 17.68 13.7075L14.13 14.2225C14.0483 14.2349 13.9716 14.2698 13.9086 14.3233C13.8456 14.3769 13.7988 14.4469 13.7734 14.5255C13.7479 14.6042 13.7449 14.6883 13.7646 14.7686C13.7843 14.8489 13.826 14.9221 13.885 14.98L16.45 17.4825C16.555 17.585 16.6025 17.7325 16.5775 17.8775L15.975 21.4125C15.9614 21.4941 15.9709 21.5779 16.0023 21.6545C16.0337 21.731 16.0858 21.7973 16.1528 21.8459C16.2198 21.8944 16.299 21.9234 16.3815 21.9294C16.4641 21.9354 16.5467 21.9183 16.62 21.88L19.795 20.21C19.8587 20.1767 19.9294 20.1593 20.0012 20.1593C20.0731 20.1593 20.1438 20.1767 20.2075 20.21L23.3825 21.88C23.4558 21.9176 23.538 21.9342 23.6202 21.9278C23.7023 21.9215 23.781 21.8924 23.8476 21.844C23.9142 21.7955 23.9661 21.7295 23.9974 21.6533C24.0287 21.5772 24.0383 21.4938 24.025 21.4125L23.42 17.875C23.4072 17.804 23.412 17.7309 23.4337 17.6621C23.4555 17.5933 23.4937 17.5308 23.545 17.48L26.115 14.9775C26.174 14.9196 26.2157 14.8464 26.2354 14.7661C26.2551 14.6858 26.2521 14.6017 26.2266 14.523C26.2012 14.4444 26.1544 14.3744 26.0914 14.3208C26.0284 14.2673 25.9517 14.2324 25.87 14.22L22.32 13.705C22.2485 13.6945 22.1806 13.6666 22.1222 13.6239C22.0638 13.5813 22.0167 13.525 21.985 13.46L20.4 10.25Z" fill="white"/>
</g>
<defs>
<clipPath id="clip0">
<rect width="40" height="40" fill="white"/>
</clipPath>
</defs>
</svg>
