<svg width="50" height="50" viewBox="0 0 50 50" fill="none" xmlns="http://www.w3.org/2000/svg">
<path d="M28.387 5.1955C19.5475 5.1955 12.3865 12.36 12.3865 21.1955C12.382 24.1063 13.1754 26.9626 14.6805 29.454L6.92303 37.2115L6.95003 37.2385C6.12203 38.031 5.61353 39.156 5.61353 40.4275C5.61303 42.884 7.57003 44.805 10.024 44.8045C11.2775 44.804 12.3985 44.3025 13.1985 43.4865L13.218 43.506L21.222 35.5015C23.4453 36.6178 25.8992 37.198 28.387 37.1955C37.227 37.1955 44.3865 30.032 44.3865 21.1955C44.3865 12.36 37.2265 5.1955 28.387 5.1955ZM28.484 30.904C22.959 30.904 18.4835 26.427 18.4835 20.904C18.4835 15.382 22.959 10.904 28.484 10.904C34.009 10.904 38.4835 15.3815 38.4835 20.904C38.484 26.427 34.009 30.904 28.484 30.904Z" fill="currentColor"/>
</svg>
